<?xml version="1.0" encoding="utf-8"?>
<!-- Generator: Adobe Illustrator 16.0.4, SVG Export Plug-In . SVG Version: 6.00 Build 0)  -->
<!DOCTYPE svg PUBLIC "-//W3C//DTD SVG 1.1//EN" "http://www.w3.org/Graphics/SVG/1.1/DTD/svg11.dtd">
<svg version="1.1" id="Layer_1" xmlns="http://www.w3.org/2000/svg" xmlns:xlink="http://www.w3.org/1999/xlink" x="0px" y="0px"
	 width="50px" height="75px" viewBox="0 0 50 75" enable-background="new 0 0 50 75" xml:space="preserve">
<g>
	<path fill="#878006" d="M5.207,8.632c0-5.644,2.714-6.946,6.062-6.946s6.062,1.303,6.062,6.946s-6.062,13.49-6.062,13.49
		S5.207,14.275,5.207,8.632z"/>
	<path fill="#FFC000" d="M6.079,9.941c0-5.644,2.714-6.947,6.062-6.947s6.062,1.303,6.062,6.947c0,5.643-6.062,13.49-6.062,13.49
		S6.079,15.584,6.079,9.941z"/>
</g>
<g>
	<path fill="#878006" d="M24.748,27.851c0.705-5.599,3.56-6.553,6.882-6.135c3.322,0.418,5.853,2.049,5.148,7.648
		c-0.705,5.6-7.7,12.628-7.7,12.628S24.043,33.451,24.748,27.851z"/>
	<path fill="#FFC000" d="M25.45,29.259c0.705-5.599,3.561-6.553,6.882-6.135c3.322,0.418,5.852,2.05,5.147,7.649
		S29.781,43.4,29.781,43.4S24.745,34.858,25.45,29.259z"/>
</g>
<g>
	<path fill="#878006" d="M12.207,58.632c0-5.644,2.714-6.946,6.062-6.946s6.062,1.303,6.062,6.946s-6.062,13.49-6.062,13.49
		S12.207,64.275,12.207,58.632z"/>
	<path fill="#FFC000" d="M13.079,59.941c0-5.644,2.714-6.947,6.062-6.947s6.062,1.303,6.062,6.947c0,5.643-6.062,13.49-6.062,13.49
		S13.079,65.584,13.079,59.941z"/>
</g>
</svg>
