<?xml version="1.0" encoding="utf-8"?>
<!-- Generator: Adobe Illustrator 16.0.0, SVG Export Plug-In . SVG Version: 6.00 Build 0)  -->
<!DOCTYPE svg PUBLIC "-//W3C//DTD SVG 1.1 Basic//EN" "http://www.w3.org/Graphics/SVG/1.1/DTD/svg11-basic.dtd">
<svg version="1.1" baseProfile="basic" id="Layer_1"
	 xmlns="http://www.w3.org/2000/svg" xmlns:xlink="http://www.w3.org/1999/xlink" x="0px" y="0px" width="402.192px"
	 height="298.635px" viewBox="0 0 402.192 298.635" xml:space="preserve">
<path fill-rule="evenodd" clip-rule="evenodd" fill="#C18536" d="M17.669,261.444c0,0-7.16,12.691,0,12.691
	C24.777,274.135,17.669,261.444,17.669,261.444z"/>
<g>
	<path fill="#FFFFFF" d="M196.135,24.678c0,3.018-0.576,5.836-1.727,8.457c-1.151,2.621-2.72,4.903-4.706,6.849
		c-1.984,1.945-4.307,3.494-6.967,4.645c-2.661,1.151-5.499,1.727-8.516,1.727c-3.018,0-5.856-0.576-8.518-1.727
		c-2.659-1.151-4.962-2.7-6.907-4.645c-1.945-1.946-3.493-4.229-4.646-6.849c-1.15-2.62-1.727-5.439-1.727-8.457
		c0-2.938,0.576-5.737,1.727-8.397c1.153-2.66,2.701-4.962,4.646-6.908c1.945-1.946,4.248-3.494,6.907-4.646
		C168.363,3.576,171.202,3,174.22,3c3.017,0,5.854,0.576,8.516,1.727c2.66,1.152,4.982,2.7,6.967,4.646
		c1.986,1.945,3.555,4.248,4.706,6.908C195.559,18.941,196.135,21.74,196.135,24.678z M190.537,186.903h-32.755V59.338h32.755
		V186.903z"/>
	<path fill="#FFFFFF" d="M248.066,235.499c-0.166,8.437-4.529,18.754-14.552,18.775c-2.766,0.008-1.528-3.35-2.342-3.35
		c-0.814,0,0.688,3.357-2.33,3.357c-9.886,0-13.531-10.558-13.531-18.783c0-3.209,0-176.161,0-176.161h7.861l12.981,15.365
		c2.938-2.779,6.154-5.4,9.648-7.861c3.494-2.462,7.127-4.586,10.898-6.372c3.771-1.787,7.683-3.196,11.732-4.229
		s8.139-1.548,12.269-1.548c8.973,0,17.409,1.608,25.31,4.823c7.901,3.216,14.81,7.763,20.725,13.639
		c5.916,5.876,10.581,12.963,13.996,21.26c3.414,8.298,5.121,17.489,5.121,27.573c0,10.481-1.707,19.912-5.121,28.289
		c-3.415,8.378-8.08,15.484-13.996,21.321c-5.915,5.836-12.823,10.303-20.725,13.398c-7.9,3.098-16.337,4.646-25.31,4.646
		c-2.859,0-5.697-0.317-8.517-0.952c-2.818-0.637-5.599-1.49-8.338-2.562c-2.738-1.072-5.439-2.282-8.099-3.632
		c-2.661-1.35-5.221-2.74-7.683-4.169C248.066,178.328,248.119,232.779,248.066,235.499z M313.218,121.988
		c0-5.399-0.854-10.243-2.56-14.53c-1.708-4.288-4.031-7.92-6.969-10.899c-2.938-2.977-6.393-5.261-10.362-6.848
		c-3.97-1.588-8.179-2.383-12.625-2.383c-4.447,0-8.636,0.794-12.566,2.383c-3.931,1.587-7.365,3.871-10.304,6.848
		c-2.938,2.979-5.26,6.611-6.967,10.899c-1.707,4.288-2.562,9.131-2.562,14.53c0,5.162,0.854,9.887,2.562,14.174
		c1.707,4.288,4.029,7.941,6.967,10.959c2.938,3.018,6.373,5.36,10.304,7.026c3.931,1.668,8.119,2.503,12.566,2.503
		c4.446,0,8.655-0.835,12.625-2.503c3.97-1.666,7.425-4.008,10.362-7.026c2.938-3.018,5.261-6.671,6.969-10.959
		C312.364,131.875,313.218,127.15,313.218,121.988z"/>
	<path fill="#FFFFFF" d="M402.192,24.678c0,3.018-0.577,5.836-1.728,8.457c-1.151,2.621-2.721,4.903-4.705,6.849
		c-1.985,1.945-4.308,3.494-6.969,4.645c-2.659,1.151-5.498,1.727-8.516,1.727s-5.856-0.576-8.516-1.727
		c-2.66-1.151-4.963-2.7-6.908-4.645c-1.945-1.946-3.494-4.229-4.645-6.849c-1.152-2.62-1.729-5.439-1.729-8.457
		c0-2.938,0.576-5.737,1.729-8.397c1.15-2.66,2.699-4.962,4.645-6.908c1.945-1.946,4.248-3.494,6.908-4.646
		C374.419,3.576,377.258,3,380.275,3s5.856,0.576,8.516,1.727c2.661,1.152,4.983,2.7,6.969,4.646
		c1.984,1.945,3.554,4.248,4.705,6.908C401.615,18.941,402.192,21.74,402.192,24.678z M396.594,186.903h-32.755V59.338h32.755
		V186.903z"/>
</g>
<g>
	<path fill="#FBB03B" d="M194.635,23.178c0,3.018-0.576,5.836-1.727,8.457c-1.151,2.621-2.72,4.903-4.706,6.849
		c-1.984,1.945-4.307,3.494-6.967,4.645c-2.661,1.151-5.499,1.727-8.516,1.727c-3.018,0-5.856-0.576-8.518-1.727
		c-2.659-1.151-4.962-2.7-6.907-4.645c-1.945-1.946-3.493-4.229-4.646-6.849c-1.15-2.62-1.727-5.439-1.727-8.457
		c0-2.938,0.576-5.737,1.727-8.397c1.153-2.66,2.701-4.962,4.646-6.908c1.945-1.946,4.248-3.494,6.907-4.646
		c2.661-1.151,5.5-1.727,8.518-1.727c3.017,0,5.854,0.576,8.516,1.727c2.66,1.152,4.982,2.7,6.967,4.646
		c1.986,1.945,3.555,4.248,4.706,6.908C194.059,17.441,194.635,20.24,194.635,23.178z M189.037,185.403h-32.755V57.838h32.755
		V185.403z"/>
	<path fill="#FBB03B" d="M246.566,233.999c-0.166,8.437-4.529,18.754-14.552,18.775c-2.766,0.008-1.528-3.35-2.342-3.35
		c-0.814,0,0.688,3.357-2.33,3.357c-9.886,0-13.531-10.558-13.531-18.783c0-3.209,0-176.161,0-176.161h7.861l12.981,15.365
		c2.938-2.779,6.154-5.4,9.648-7.861c3.494-2.462,7.127-4.586,10.898-6.372c3.771-1.787,7.683-3.196,11.732-4.229
		s8.139-1.548,12.269-1.548c8.973,0,17.409,1.608,25.31,4.823c7.901,3.216,14.81,7.763,20.725,13.639
		c5.916,5.876,10.581,12.963,13.996,21.26c3.414,8.298,5.121,17.489,5.121,27.573c0,10.481-1.707,19.912-5.121,28.289
		c-3.415,8.378-8.08,15.484-13.996,21.321c-5.915,5.836-12.823,10.303-20.725,13.398c-7.9,3.098-16.337,4.646-25.31,4.646
		c-2.859,0-5.697-0.317-8.517-0.952c-2.818-0.637-5.599-1.49-8.338-2.562c-2.738-1.072-5.439-2.282-8.099-3.632
		c-2.661-1.35-5.221-2.74-7.683-4.169C246.566,176.828,246.619,231.279,246.566,233.999z M311.718,120.488
		c0-5.399-0.854-10.243-2.56-14.53c-1.708-4.288-4.031-7.92-6.969-10.899c-2.938-2.977-6.393-5.261-10.362-6.848
		c-3.97-1.588-8.179-2.383-12.625-2.383c-4.447,0-8.636,0.794-12.566,2.383c-3.931,1.587-7.365,3.871-10.304,6.848
		c-2.938,2.979-5.26,6.611-6.967,10.899c-1.707,4.288-2.562,9.131-2.562,14.53c0,5.162,0.854,9.887,2.562,14.174
		c1.707,4.288,4.029,7.941,6.967,10.959c2.938,3.018,6.373,5.36,10.304,7.026c3.931,1.668,8.119,2.503,12.566,2.503
		c4.446,0,8.655-0.835,12.625-2.503c3.97-1.666,7.425-4.008,10.362-7.026s5.261-6.671,6.969-10.959
		C310.864,130.375,311.718,125.65,311.718,120.488z"/>
	<path fill="#FBB03B" d="M400.692,23.178c0,3.018-0.577,5.836-1.728,8.457c-1.151,2.621-2.721,4.903-4.705,6.849
		c-1.985,1.945-4.308,3.494-6.969,4.645c-2.659,1.151-5.498,1.727-8.516,1.727s-5.856-0.576-8.516-1.727
		c-2.66-1.151-4.963-2.7-6.908-4.645c-1.945-1.946-3.494-4.229-4.645-6.849c-1.152-2.62-1.729-5.439-1.729-8.457
		c0-2.938,0.576-5.737,1.729-8.397c1.15-2.66,2.699-4.962,4.645-6.908c1.945-1.946,4.248-3.494,6.908-4.646
		c2.659-1.151,5.498-1.727,8.516-1.727s5.856,0.576,8.516,1.727c2.661,1.152,4.983,2.7,6.969,4.646
		c1.984,1.945,3.554,4.248,4.705,6.908C400.115,17.441,400.692,20.24,400.692,23.178z M395.094,185.403h-32.755V57.838h32.755
		V185.403z"/>
</g>
<path fill="#FBB03B" d="M34.254,233.433c-0.165,8.437-4.529,18.753-14.548,18.776c-2.768,0.006-1.533-3.352-2.346-3.352
	s0.688,3.357-2.33,3.357c-9.886,0-13.53-10.557-13.53-18.782c0-3.21,0-176.161,0-176.161h7.86l12.983,15.365
	c2.938-2.779,6.152-5.399,9.649-7.861c3.493-2.458,7.125-4.586,10.898-6.373c3.77-1.786,7.681-3.196,11.731-4.228
	c4.05-1.029,8.139-1.548,12.269-1.548c8.972,0,17.407,1.607,25.31,4.823c7.901,3.216,14.81,7.762,20.727,13.639
	c5.913,5.879,10.58,12.966,13.995,21.26c3.411,8.298,5.121,17.493,5.121,27.573c0,10.481-1.71,19.911-5.121,28.289
	c-3.415,8.381-8.082,15.484-13.995,21.32c-5.917,5.837-12.825,10.303-20.727,13.4c-7.902,3.096-16.338,4.645-25.31,4.645
	c-2.859,0-5.699-0.318-8.518-0.953c-2.818-0.639-5.598-1.488-8.337-2.561s-5.439-2.28-8.099-3.633
	c-2.662-1.351-5.223-2.739-7.684-4.17C34.254,176.26,34.307,230.713,34.254,233.433z M99.406,119.923
	c0-5.399-0.854-10.243-2.562-14.531c-1.709-4.288-4.031-7.921-6.967-10.898c-2.938-2.979-6.392-5.257-10.362-6.849
	c-3.973-1.587-8.179-2.382-12.625-2.382c-4.449,0-8.635,0.794-12.566,2.382c-3.932,1.592-7.367,3.871-10.303,6.849
	c-2.938,2.978-5.262,6.61-6.968,10.898c-1.709,4.288-2.562,9.132-2.562,14.531c0,5.166,0.853,9.886,2.562,14.174
	c1.706,4.288,4.029,7.941,6.968,10.959c2.936,3.02,6.371,5.359,10.303,7.027c3.932,1.667,8.117,2.502,12.566,2.502
	c4.446,0,8.652-0.835,12.625-2.502c3.971-1.668,7.424-4.007,10.362-7.027c2.936-3.018,5.258-6.671,6.967-10.959
	C98.553,129.809,99.406,125.088,99.406,119.923z"/>
<path fill-rule="evenodd" clip-rule="evenodd" fill="#FBB03B" d="M16.646,261.444c0,0-7.16,12.691,0,12.691
	C23.754,274.135,16.646,261.444,16.646,261.444z"/>
<g>
	<path fill="#FFFFFF" d="M193.135,21.678c0,3.018-0.576,5.836-1.727,8.457c-1.151,2.621-2.72,4.903-4.706,6.849
		c-1.984,1.945-4.307,3.494-6.967,4.645c-2.661,1.151-5.499,1.727-8.516,1.727c-3.018,0-5.856-0.576-8.518-1.727
		c-2.659-1.151-4.962-2.7-6.907-4.645c-1.945-1.946-3.493-4.229-4.646-6.849c-1.15-2.62-1.727-5.439-1.727-8.457
		c0-2.938,0.576-5.737,1.727-8.397c1.153-2.66,2.701-4.962,4.646-6.908c1.945-1.946,4.248-3.494,6.907-4.646
		C165.363,0.576,168.202,0,171.22,0c3.017,0,5.854,0.576,8.516,1.727c2.66,1.152,4.982,2.7,6.967,4.646
		c1.986,1.945,3.555,4.248,4.706,6.908C192.559,15.941,193.135,18.74,193.135,21.678z M187.537,183.903h-32.755V56.338h32.755
		V183.903z"/>
	<path fill="#FFFFFF" d="M245.066,232.499c-0.166,8.437-4.529,18.754-14.552,18.775c-2.766,0.008-1.528-3.35-2.342-3.35
		c-0.814,0,0.688,3.357-2.33,3.357c-9.886,0-13.531-10.558-13.531-18.783c0-3.209,0-176.161,0-176.161h7.861l12.981,15.365
		c2.938-2.779,6.154-5.4,9.648-7.861c3.494-2.462,7.127-4.586,10.898-6.372c3.771-1.787,7.683-3.196,11.732-4.229
		s8.139-1.548,12.269-1.548c8.973,0,17.409,1.608,25.31,4.823c7.901,3.216,14.81,7.763,20.725,13.639
		c5.916,5.876,10.581,12.963,13.996,21.26c3.414,8.298,5.121,17.489,5.121,27.573c0,10.481-1.707,19.912-5.121,28.289
		c-3.415,8.378-8.08,15.484-13.996,21.321c-5.915,5.836-12.823,10.303-20.725,13.398c-7.9,3.098-16.337,4.646-25.31,4.646
		c-2.859,0-5.697-0.317-8.517-0.952c-2.818-0.637-5.599-1.49-8.338-2.562c-2.738-1.072-5.439-2.282-8.099-3.632
		c-2.661-1.35-5.221-2.74-7.683-4.169C245.066,175.328,245.119,229.779,245.066,232.499z M310.218,118.988
		c0-5.399-0.854-10.243-2.56-14.53c-1.708-4.288-4.031-7.92-6.969-10.899c-2.938-2.977-6.393-5.261-10.362-6.848
		c-3.97-1.588-8.179-2.383-12.625-2.383c-4.447,0-8.636,0.794-12.566,2.383c-3.931,1.587-7.365,3.871-10.304,6.848
		c-2.938,2.979-5.26,6.611-6.967,10.899c-1.707,4.288-2.562,9.131-2.562,14.53c0,5.162,0.854,9.887,2.562,14.174
		c1.707,4.288,4.029,7.941,6.967,10.959c2.938,3.018,6.373,5.36,10.304,7.026c3.931,1.668,8.119,2.503,12.566,2.503
		c4.446,0,8.655-0.835,12.625-2.503c3.97-1.666,7.425-4.008,10.362-7.026s5.261-6.671,6.969-10.959
		C309.364,128.875,310.218,124.15,310.218,118.988z"/>
	<path fill="#FFFFFF" d="M399.192,21.678c0,3.018-0.577,5.836-1.728,8.457c-1.151,2.621-2.721,4.903-4.705,6.849
		c-1.985,1.945-4.308,3.494-6.969,4.645c-2.659,1.151-5.498,1.727-8.516,1.727s-5.856-0.576-8.516-1.727
		c-2.66-1.151-4.963-2.7-6.908-4.645c-1.945-1.946-3.494-4.229-4.645-6.849c-1.152-2.62-1.729-5.439-1.729-8.457
		c0-2.938,0.576-5.737,1.729-8.397c1.15-2.66,2.699-4.962,4.645-6.908c1.945-1.946,4.248-3.494,6.908-4.646
		C371.419,0.576,374.258,0,377.275,0s5.856,0.576,8.516,1.727c2.661,1.152,4.983,2.7,6.969,4.646
		c1.984,1.945,3.554,4.248,4.705,6.908C398.615,15.941,399.192,18.74,399.192,21.678z M393.594,183.903h-32.755V56.338h32.755
		V183.903z"/>
</g>
<path fill="#FFFFFF" d="M32.754,231.933c-0.165,8.437-4.529,18.753-14.548,18.776c-2.768,0.006-1.533-3.352-2.346-3.352
	s0.688,3.357-2.33,3.357C3.645,250.715,0,240.159,0,231.933c0-3.21,0-176.161,0-176.161h7.86l12.983,15.365
	c2.938-2.779,6.152-5.399,9.649-7.861c3.493-2.458,7.125-4.586,10.898-6.373c3.77-1.786,7.681-3.196,11.731-4.228
	c4.05-1.029,8.139-1.548,12.269-1.548c8.972,0,17.407,1.607,25.31,4.823c7.901,3.216,14.81,7.762,20.727,13.639
	c5.913,5.879,10.58,12.966,13.995,21.26c3.411,8.298,5.121,17.493,5.121,27.573c0,10.481-1.71,19.911-5.121,28.289
	c-3.415,8.381-8.082,15.484-13.995,21.32c-5.917,5.837-12.825,10.303-20.727,13.4c-7.902,3.096-16.338,4.645-25.31,4.645
	c-2.859,0-5.699-0.318-8.518-0.953c-2.818-0.639-5.598-1.488-8.337-2.561s-5.439-2.28-8.099-3.633
	c-2.662-1.351-5.223-2.739-7.684-4.17C32.754,174.76,32.807,229.213,32.754,231.933z M97.906,118.423
	c0-5.399-0.854-10.243-2.562-14.531c-1.709-4.288-4.031-7.921-6.967-10.898c-2.938-2.979-6.392-5.257-10.362-6.849
	c-3.973-1.587-8.179-2.382-12.625-2.382c-4.449,0-8.635,0.794-12.566,2.382c-3.932,1.592-7.367,3.871-10.303,6.849
	c-2.938,2.978-5.262,6.61-6.968,10.898c-1.709,4.288-2.562,9.132-2.562,14.531c0,5.166,0.853,9.886,2.562,14.174
	c1.706,4.288,4.029,7.941,6.968,10.959c2.936,3.02,6.371,5.359,10.303,7.027c3.932,1.667,8.117,2.502,12.566,2.502
	c4.446,0,8.652-0.835,12.625-2.502c3.971-1.668,7.424-4.007,10.362-7.027c2.936-3.018,5.258-6.671,6.967-10.959
	C97.053,128.309,97.906,123.588,97.906,118.423z"/>
<path fill-rule="evenodd" clip-rule="evenodd" fill="#C18536" d="M18.181,285.944c0,0-7.16,12.691,0,12.691
	C25.289,298.635,18.181,285.944,18.181,285.944z"/>
<path fill-rule="evenodd" clip-rule="evenodd" fill="#FBB03B" d="M17.157,285.944c0,0-7.16,12.691,0,12.691
	C24.266,298.635,17.157,285.944,17.157,285.944z"/>
<path fill-rule="evenodd" clip-rule="evenodd" fill="#C18536" d="M229.414,261.444c0,0-7.159,12.691,0,12.691
	C236.522,274.135,229.414,261.444,229.414,261.444z"/>
<path fill-rule="evenodd" clip-rule="evenodd" fill="#FBB03B" d="M228.391,261.444c0,0-7.159,12.691,0,12.691
	C235.499,274.135,228.391,261.444,228.391,261.444z"/>
<path fill-rule="evenodd" clip-rule="evenodd" fill="#C18536" d="M229.926,285.944c0,0-7.159,12.691,0,12.691
	C237.034,298.635,229.926,285.944,229.926,285.944z"/>
<path fill-rule="evenodd" clip-rule="evenodd" fill="#FBB03B" d="M228.902,285.944c0,0-7.159,12.691,0,12.691
	C236.011,298.635,228.902,285.944,228.902,285.944z"/>
</svg>
