<?xml version="1.0" encoding="utf-8"?>
<!-- Generator: Adobe Illustrator 16.0.0, SVG Export Plug-In . SVG Version: 6.00 Build 0)  -->
<!DOCTYPE svg PUBLIC "-//W3C//DTD SVG 1.1 Basic//EN" "http://www.w3.org/Graphics/SVG/1.1/DTD/svg11-basic.dtd">
<svg version="1.1" baseProfile="basic" id="Layer_1"
	 xmlns="http://www.w3.org/2000/svg" xmlns:xlink="http://www.w3.org/1999/xlink" x="0px" y="0px" width="168.456px" height="495px"
	 viewBox="0 0 168.456 495" xml:space="preserve">
<g>
	<path fill="#773805" d="M2.105-3.393c0,12.535,4.282,175.463,4.267,233.676c-0.017,66.495-4.329,268.358-4.329,268.358H83.66h1.137
		h81.617c0,0-4.312-201.863-4.329-268.358c-0.015-58.213,4.267-221.141,4.267-233.676"/>
	<path fill="#42210B" d="M0.043,498.598c0.043-2.019,4.312-202.603,4.328-268.315c0.01-39.812-1.955-127.072-3.256-184.815
		C0.529,19.412,0.105,0.587,0.105-3.393h4c0,3.935,0.423,22.741,1.01,48.771c1.301,57.76,3.267,145.049,3.257,184.906
		c-0.016,62.175-3.833,246.935-4.286,268.357H164.37c-0.452-21.423-4.271-206.183-4.286-268.357
		c-0.01-39.855,1.956-127.139,3.257-184.896c0.586-26.035,1.01-44.845,1.01-48.78h4c0,3.98-0.424,22.81-1.011,48.87
		c-1.301,57.74-3.266,144.996-3.256,184.805c0.017,65.713,4.285,266.297,4.329,268.315"/>
</g>
<path fill="#EA9C5C" d="M160.12,254.736"/>
<path d="M55.252,304.687"/>
<g opacity="0.5">
	<path fill="#E28F50" d="M56.381,259.834c10.859-6.95,22.763-14.674,28.705-26.57c5.578-11.168,4.718-24.913,4.722-37.014
		c0.001-1.935-2.999-1.935-3,0c-0.004,11.438,0.744,24.001-3.95,34.725c-5.202,11.884-17.52,19.567-27.99,26.269
		C53.244,258.283,54.747,260.881,56.381,259.834L56.381,259.834z"/>
</g>
<g opacity="0.5">
	<path fill="#E28F50" d="M66.373,265.6c4.757-4.793,9.296-9.95,15.3-13.223c10.537-5.743,18.341,3.961,23.011,12.419
		c0.935,1.694,3.525,0.181,2.59-1.514c-4.688-8.493-11.716-17.539-22.533-15.27c-8.396,1.761-14.766,9.7-20.489,15.466
		C62.888,264.853,65.008,266.974,66.373,265.6L66.373,265.6z"/>
</g>
<g opacity="0.5">
	<path fill="#E28F50" d="M99.551,196.193c-4.965,21.268,1.771,46.82,12.466,65.397c0.964,1.676,3.557,0.166,2.59-1.514
		c-10.274-17.85-16.936-42.641-12.163-63.086C102.883,195.109,99.99,194.31,99.551,196.193L99.551,196.193z"/>
</g>
</svg>
