<?xml version="1.0" encoding="utf-8"?>
<!-- Generator: Adobe Illustrator 16.0.4, SVG Export Plug-In . SVG Version: 6.00 Build 0)  -->
<!DOCTYPE svg PUBLIC "-//W3C//DTD SVG 1.1//EN" "http://www.w3.org/Graphics/SVG/1.1/DTD/svg11.dtd">
<svg version="1.1" id="Layer_1" xmlns="http://www.w3.org/2000/svg" xmlns:xlink="http://www.w3.org/1999/xlink" x="0px" y="0px"
	 width="170.421px" height="402.824px" viewBox="0 0 170.421 402.824" enable-background="new 0 0 170.421 402.824"
	 xml:space="preserve">
<path fill="#F4BF8C" stroke="#CC9976" stroke-width="4" stroke-miterlimit="10" d="M3.074,138.791
	c0,12.535,4.281,70.463,4.266,128.676c-0.016,66.494-4.328,133.357-4.328,133.357h81.616h1.137h81.617
	c0,0-4.312-66.863-4.329-133.357c-0.015-58.213,4.267-116.141,4.267-128.676"/>
<path fill="#F8CB99" stroke="#CC9976" stroke-width="4" stroke-miterlimit="10" d="M86.475,2.019
	c86.844,0.608,83.769,137.792,80.905,138.507c-2.862,0.715,0.063,0,0.063,0s-32.639,8.591-81.617,8.591
	c-48.978,0-82.754-8.591-82.754-8.591s3.064,0.709,0.063,0C0.134,139.817-3.301,2.627,83.542,2.019c0,0-1.855,7.742,1.691,7.62
	S86.475,2.019,86.475,2.019z"/>
<path opacity="0.6" fill="#FFFBF8" d="M17.008,116.172c0,0-3.358-58.98,22.552-85.375c0,0-20.773,51.038-11.275,86.449
	C17.008,118.443,17.008,116.172,17.008,116.172z"/>
<g opacity="0.5">
	<g>
		<path fill="#E28F50" d="M57.349,292.019c10.859-6.951,22.763-14.675,28.704-26.571c5.578-11.168,4.719-24.913,4.723-37.014
			c0.001-1.935-2.999-1.935-3,0c-0.004,11.438,0.744,24.002-3.95,34.726c-5.203,11.884-17.52,19.566-27.99,26.27
			C54.212,290.468,55.715,293.065,57.349,292.019L57.349,292.019z"/>
	</g>
</g>
<g opacity="0.5">
	<g>
		<path fill="#E28F50" d="M67.341,297.784c4.757-4.793,9.296-9.95,15.3-13.223c10.537-5.743,18.341,3.961,23.011,12.419
			c0.935,1.694,3.525,0.181,2.59-1.514c-4.688-8.493-11.716-17.539-22.532-15.271c-8.396,1.762-14.767,9.701-20.489,15.467
			C63.856,297.037,65.977,299.159,67.341,297.784L67.341,297.784z"/>
	</g>
</g>
<g opacity="0.5">
	<g>
		<path fill="#E28F50" d="M100.519,228.378c-4.965,21.268,1.771,46.819,12.466,65.396c0.964,1.676,3.557,0.166,2.59-1.514
			c-10.274-17.849-16.936-42.641-12.163-63.086C103.851,227.293,100.958,226.494,100.519,228.378L100.519,228.378z"/>
	</g>
</g>
</svg>
